<?xml version="1.0" encoding="utf-8"?>
<!-- Generator: Adobe Illustrator 22.0.1, SVG Export Plug-In . SVG Version: 6.00 Build 0)  -->
<svg version="1.1" id="Слой_1" xmlns="http://www.w3.org/2000/svg" xmlns:xlink="http://www.w3.org/1999/xlink" x="0px" y="0px"
	 viewBox="0 0 764 244" style="enable-background:new 0 0 764 244;" xml:space="preserve">
<style type="text/css">
	.st0{fill:none;}
	.st1{opacity:0.86;enable-background:new    ;}
</style>
<polygon class="st0" points="299,45.8 241.8,45.8 241.8,29.7 195,29.7 195,88.8 212.5,88.8 212.5,110.2 298.3,110.2 298.3,95.5 
	345,95.5 345,29.8 299,29.8 "/>
<path class="st1" d="M298,28.8v16h-55.2V28.7H194v61.1h17.5v21.3h87.8V96.5H346V28.8H298z M345,95.6h-46.7v14.7h-85.8V88.8H195V29.7
	h46.8v16.1H299v-16h46V95.6z"/>
<path class="st1" d="M130.3,127.8l-0.1-16.6L42,111.4v62.3h80.6v19.8h55v-65.6L130.3,127.8z M175.6,192.4h-52.1v-19.9H43v-60.6h86
	v17.2l46.6-0.1V192.4z"/>
<polygon class="st0" points="346,96.7 299.3,96.7 299.3,111.1 259.3,111.1 259.3,127.6 239.1,127.6 239.1,131.2 212.8,131.2 
	212.8,192.5 249.4,192.5 249.4,176.6 379,176.6 379,29.8 346,29.8 "/>
<path class="st1" d="M345,28.8v67h-46.7v14.4h-40v16.5h-20.2v3.6h-26.3v63.3h38.6v-16H380V28.8H345z M379,176.6H249.4v15.9h-36.6
	v-61.3h26.3v-3.6h20.3v-16.5h40V96.7H346v-67h33V176.6z"/>
<polygon class="st0" points="517.3,45.8 460.1,45.8 460.1,29.8 414.1,29.8 414.1,95.6 460.8,95.6 460.8,110.3 557.6,110.3 
	557.6,88.8 564.1,88.8 564.1,29.8 517.3,29.8 "/>
<path class="st1" d="M516.3,28.8v16h-55.2v-16h-48v67.8h46.8v14.7h98.8V89.8h6.5v-61L516.3,28.8z M564.1,88.8h-6.5v21.4h-96.8V95.6
	h-46.7V29.8h46v16h57.3v-16h46.8L564.1,88.8z"/>
<polygon class="st0" points="630,129 584,129 584,192.2 619,192.2 619.1,176.1 716,175.9 716,113 630,113 "/>
<path class="st1" d="M629,112.3V128h-47v65h38l0.1-16H717l0.3-64.7H629z M716,175.9l-96.9,0.2l-0.1,16.1h-35V129h46v-16h86V175.9z"
	/>
<polygon class="st0" points="520,127.7 499.8,127.7 499.8,111.2 459.8,111.2 459.8,96.8 413.1,96.8 413.1,29.8 380,29.8 380,176.6 
	509.7,176.6 509.7,192.5 546.3,192.5 546.3,131.3 520,131.3 "/>
<path class="st1" d="M521,130.2v-3.6h-20.2v-16.4h-40V95.8h-46.7v-67H379v148.8h129.7v15.9h38.6v-63.3H521z M546.3,192.5h-36.6
	v-15.9H380V29.8h33v67h46.7v14.4h40v16.5H520v3.6h26.3V192.5z"/>
<polygon class="st0" points="147,45.9 89.8,45.9 89.8,29.7 43,29.7 43,88.8 43,110.5 60.5,110.5 193,110.4 193,95.5 193,95.5 
	193,29.8 147,29.8 "/>
<path class="st1" d="M146,28.7v16.2H90.8V28.7H42v61.2v21.5l17.5,0l87.8-0.2l46.7,0.2V96.6V28.7H146z M193,95.8v14.6l-46.7,0.1H60.5
	H43V88.9V29.7h46.8v16.2H147V29.7h46V95.8z"/>
<polygon class="st0" points="669.5,46.7 612.2,46.7 612.2,29.8 566.2,29.8 566.2,89 582,89 582,111.2 716,111.2 716.2,89.7 
	716.2,89.7 716.2,30.7 669.5,30.7 "/>
<path class="st1" d="M668.4,28.8v17h-55.2v-17h-48v61H580V112l130.8,0.3h6.5V90.8v-62C717.3,28.8,668.4,28.8,668.4,28.8z
	 M716.2,89.8l-0.2,21.4h-6.3H582V89h-15.8V29.8h46v17h57.3v-17h46.8L716.2,89.8z"/>
<polygon class="st0" points="129,111.9 43,111.9 43,172.5 123.5,172.5 123.5,192.4 175.6,192.4 175.6,129 129,129.1 "/>
</svg>
