<svg xmlns="http://www.w3.org/2000/svg" viewBox="0 0 764 244"><defs><style>.cls-1{fill:none;}.cls-2{opacity:0.86;}.cls-3{fill:#212121;}</style></defs><polygon class="cls-1" points="89.9 29.1 42.2 29.1 42.2 176.6 85.1 176.6 85.1 126.7 128.3 126.7 128.3 110.9 89.9 110.9 89.9 29.1"/><path class="cls-2" d="M90.9,109.9V28.1H41.3V177.6H86.1V127.7h43.2V109.9Zm37.4,16.7H85.1v49.9H42.2V29.1H89.9v81.9h38.4Z"/><polygon class="cls-1" points="147.6 45.9 90.9 45.9 90.9 109.9 188.8 109.9 188.8 88.7 194 88.7 194 30 147.6 30 147.6 45.9"/><path class="cls-3" d="M146.6,29v16H89.9v65.9h99.8V89.7H195V29ZM194,88.7h-5.2v21.1H90.9V45.9h56.7V30H194Z"/><polygon class="cls-1" points="299 45.8 241.8 45.8 241.8 29.7 195 29.7 195 88.8 212.5 88.8 212.5 110.2 298.3 110.2 298.3 95.5 345 95.5 345 29.8 299 29.8 299 45.8"/><path class="cls-2" d="M298,28.8v16H242.8V28.7H194V89.8h17.5v21.3h87.8V96.5H346V28.8Zm47,66.8H298.3v14.7H212.5V88.8H195V29.7h46.8V45.8H299v-16h46Z"/><polygon class="cls-1" points="150.5 127.6 85.8 127.6 85.8 176.6 140.2 176.6 140.2 192.5 176.2 192.5 176.2 131.6 150.5 131.6 150.5 127.6"/><path class="cls-2" d="M152,130.7v-4H85.3v50.9h54.3v15.9h38V130.7Zm24.2,61.9h-36V176.6H85.8v-49h64.7v4h25.7Z"/><polygon class="cls-1" points="346 96.7 299.3 96.7 299.3 111.1 259.3 111.1 259.3 127.6 239.1 127.6 239.1 131.2 212.8 131.2 212.8 192.5 249.4 192.5 249.4 176.6 379 176.6 379 29.8 346 29.8 346 96.7"/><path class="cls-2" d="M345,28.8v67H298.3v14.4h-40v16.5H238.1v3.6H211.8v63.3h38.6V177.6H380V28.8Zm34,147.8H249.4v15.9H212.8V131.2h26.3v-3.6h20.3V111.1h40V96.7H346v-67h33Z"/><polygon class="cls-1" points="669.4 111.6 630.8 111.6 630.8 126.3 674.3 126.3 674.3 177.1 717.4 177.1 717.4 29.8 669.4 29.8 669.4 111.6"/><path class="cls-2" d="M668.4,28.8v81.8H629.8v16.7h43.5v50.8h45.2V28.8Zm49,148.3H674.3V126.3H630.8V111.6h38.7V29.8h48Z"/><polygon class="cls-1" points="611.6 29.8 565.1 29.8 565.1 88.9 582.3 88.9 582.3 110.3 668.4 110.3 668.4 45.9 611.6 45.9 611.6 29.8"/><path class="cls-2" d="M612.6,44.9V28.8H564.1V89.9h17.3v21.4h88.1V44.9Zm55.8,65.4H582.3V88.9H565.1V29.8h46.5V45.9h56.8Z"/><polygon class="cls-1" points="517.3 45.8 460.1 45.8 460.1 29.8 414.1 29.8 414.1 95.6 460.8 95.6 460.8 110.3 557.6 110.3 557.6 88.8 564.1 88.8 564.1 29.8 517.3 29.8 517.3 45.8"/><path class="cls-2" d="M516.3,28.8v16H461.1v-16h-48V96.6h46.8v14.7h98.8V89.8h6.5v-61Zm47.8,60h-6.5v21.4H460.8V95.6H414.1V29.8h46v16h57.3v-16h46.8Z"/><polygon class="cls-1" points="608.6 131.2 582.9 131.2 582.9 192.4 618.9 192.4 618.9 177.2 673.3 177.2 673.3 127 608.6 127 608.6 131.2"/><path class="cls-2" d="M607.6,126v4.2H581.9v63.2h38V178.2h54.3V126Zm65.7,51.2H618.9v15.2h-36V131.2h25.7V127h64.7Z"/><polygon class="cls-1" points="520 127.7 499.8 127.7 499.8 111.2 459.8 111.2 459.8 96.8 413.1 96.8 413.1 29.8 380 29.8 380 176.6 509.7 176.6 509.7 192.5 546.3 192.5 546.3 131.3 520 131.3 520 127.7"/><path class="cls-2" d="M521,130.2v-3.6H500.8V110.2h-40V95.8H414.1V28.8H379V177.6H508.7v15.9h38.6V130.2Zm25.3,62.3H509.7V176.6H380V29.8h33V96.8h46.7v14.4h40v16.5H520v3.6h26.3Z"/></svg>
