<svg xmlns="http://www.w3.org/2000/svg" viewBox="0 0 37.5 24.41"><title>Иконка глаза</title><path d="M20.17,12.55a3.29,3.29,0,1,0,3.29,3.29A3.29,3.29,0,0,0,20.17,12.55Zm0,4.37a1.09,1.09,0,1,1,1.09-1.09A1.09,1.09,0,0,1,20.17,16.92Z" transform="translate(-1.42 -3.63)"/><path d="M34.78,16.46l.43-.62-.43-.62a17.29,17.29,0,0,0-3.72-3.66,18.19,18.19,0,0,0-21.76,0A17.5,17.5,0,0,0,5.56,15.2l-.44.63.44.63A17.5,17.5,0,0,0,9.3,20.12a18.28,18.28,0,0,0,10.76,3.61h.13a18.19,18.19,0,0,0,10.87-3.61A17.29,17.29,0,0,0,34.78,16.46ZM10.67,18.39a17,17,0,0,1-2.8-2.56A17.18,17.18,0,0,1,13.5,11.6a7.88,7.88,0,0,0,0,8.47A16.87,16.87,0,0,1,10.67,18.39Zm9.5,3.14h0a5.7,5.7,0,1,1,5.71-5.7A5.7,5.7,0,0,1,20.15,21.53Zm6.63-1.43a7.88,7.88,0,0,0,0-8.54,17,17,0,0,1,5.67,4.27,16.76,16.76,0,0,1-2.78,2.56A16.66,16.66,0,0,1,26.81,20.1Z" transform="translate(-1.42 -3.63)"/><polygon points="8.13 0 0 0 0 8.65 2.2 8.65 2.2 2.2 8.13 2.2 8.13 0"/><polygon points="35.3 15.76 35.3 22.21 29.37 22.21 29.37 24.41 37.5 24.41 37.5 15.76 35.3 15.76"/></svg>
