<svg id="Слой_1" data-name="Слой 1" xmlns="http://www.w3.org/2000/svg" xmlns:xlink="http://www.w3.org/1999/xlink" viewBox="0 0 394.7 396.33"><defs><style>.cls-1{fill:#4c73b7;}.cls-1,.cls-10,.cls-11,.cls-12,.cls-13,.cls-14,.cls-15,.cls-16,.cls-17,.cls-18,.cls-2,.cls-3,.cls-4,.cls-5,.cls-6,.cls-7,.cls-8,.cls-9{fill-rule:evenodd;}.cls-2{fill:url(#GradientFill_1);}.cls-3{fill:url(#GradientFill_1-2);}.cls-4{fill:url(#GradientFill_1-3);}.cls-5{fill:url(#GradientFill_1-4);}.cls-6{fill:url(#GradientFill_1-5);}.cls-7{fill:url(#GradientFill_1-6);}.cls-8{fill:url(#GradientFill_1-7);}.cls-9{fill:url(#GradientFill_1-8);}.cls-10{fill:url(#GradientFill_1-9);}.cls-11{fill:url(#GradientFill_1-10);}.cls-12{fill:url(#GradientFill_1-11);}.cls-13{fill:url(#GradientFill_1-12);}.cls-14{fill:url(#GradientFill_1-13);}.cls-15{fill:url(#GradientFill_1-14);}.cls-16{fill:url(#GradientFill_1-15);}.cls-17{fill:url(#GradientFill_1-16);}.cls-18{fill:url(#GradientFill_1-17);}</style><linearGradient id="GradientFill_1" x1="178.36" y1="72.33" x2="340.35" y2="72.33" gradientUnits="userSpaceOnUse"><stop offset="0" stop-color="#3eb5f1"/><stop offset="1" stop-color="#4c73b7"/></linearGradient><linearGradient id="GradientFill_1-2" x1="200.01" y1="116.4" x2="343.79" y2="113.89" xlink:href="#GradientFill_1"/><linearGradient id="GradientFill_1-3" x1="160.36" y1="33.45" x2="443.11" y2="43.32" xlink:href="#GradientFill_1"/><linearGradient id="GradientFill_1-4" x1="57.3" y1="84.82" x2="223.26" y2="61.49" xlink:href="#GradientFill_1"/><linearGradient id="GradientFill_1-5" x1="83.37" y1="116.44" x2="197.74" y2="116.44" xlink:href="#GradientFill_1"/><linearGradient id="GradientFill_1-6" x1="53.07" y1="63.37" x2="227.25" y2="10.11" xlink:href="#GradientFill_1"/><linearGradient id="GradientFill_1-7" x1="364.11" y1="144.1" x2="180.61" y2="150.5" xlink:href="#GradientFill_1"/><linearGradient id="GradientFill_1-8" x1="250.03" y1="147.39" x2="-3.75" y2="147.39" xlink:href="#GradientFill_1"/><linearGradient id="GradientFill_1-9" x1="347.72" y1="169.85" x2="-101.45" y2="169.85" xlink:href="#GradientFill_1"/><linearGradient id="GradientFill_1-10" x1="386.89" y1="163.11" x2="157.79" y2="171.11" xlink:href="#GradientFill_1"/><linearGradient id="GradientFill_1-11" x1="290.31" y1="199.26" x2="-9.14" y2="199.26" xlink:href="#GradientFill_1"/><linearGradient id="GradientFill_1-12" x1="336.73" y1="199.31" x2="173.12" y2="205.02" xlink:href="#GradientFill_1"/><linearGradient id="GradientFill_1-13" x1="48.13" y1="91.19" x2="75.57" y2="91.19" xlink:href="#GradientFill_1"/><linearGradient id="GradientFill_1-14" x1="48.13" y1="112.44" x2="75.57" y2="112.44" xlink:href="#GradientFill_1"/><linearGradient id="GradientFill_1-15" x1="316.79" y1="93.73" x2="348.27" y2="88.75" xlink:href="#GradientFill_1"/><linearGradient id="GradientFill_1-16" x1="319.33" y1="112.44" x2="346.31" y2="111.97" xlink:href="#GradientFill_1"/><linearGradient id="GradientFill_1-17" x1="81.36" y1="108.2" x2="230.36" y2="38.73" xlink:href="#GradientFill_1"/></defs><title>river_cvartal_logo</title><path class="cls-1" d="M.39,315.53H17.85v-18h8.64c15.65,0,27.08-7.83,27.08-22.67,0-14.13-10.26-22.31-26.18-22.31H.39v63Zm17.45-31.67V267.21H26c6.3,0,10.08,2.88,10.08,8.28,0,5.13-3.78,8.37-10,8.37Zm44.9,31.67h51.1V300.68H80v-10h30.23V276.93H80v-9.54H113.4V252.55H62.74v63Zm97.17,0h17.45v-63H159.91V278a17.82,17.82,0,0,1-11.07,3.42c-6.21,0-8.64-3.15-8.64-9.9v-19H122.75v23.93c0,13.23,7.83,21.05,21.05,21.05a34.7,34.7,0,0,0,16.1-4v22Zm30.41,0h17.45V291.6h22.4v23.93h17.46v-63H230.18v23.57h-22.4V252.55H190.32v63Zm101.94,1.26c19.43,0,34-14.66,34-32.75,0-18.26-14.4-32.75-33.83-32.75s-34,14.67-34,32.75c0,18.26,14.39,32.75,33.83,32.75Zm.18-15.74c-9.54,0-16.1-7.92-16.1-17,0-9.27,6.39-17,15.92-17s16.2,7.92,16.2,17c0,9.27-6.39,17-16,17Zm44.72,14.48h16.29l24.38-35.45v35.45H395.1v-63H378.81L354.43,288V252.55H337.16v63Zm29.51-67c8.73,0,14.58-5,15.92-13.77L373.05,233c-1.17,3.24-3,5.4-6.39,5.4s-5.13-2.16-6.3-5.4l-9.54,1.71C352.18,243.46,358,248.5,366.67,248.5Z" transform="translate(-0.39 -5.7)"/><path class="cls-1" d="M12.64,401.8v-3.62l2.14-2.44,4.07,6.06h2.88L16.35,394l5.12-5.81H18.61l-6,7.09v-7.09H10.27v7.09l-6-7.09H1.44L6.55,394,1.17,401.8H4.05l4.07-6.06,2.14,2.44v3.62Zm25.75,0h2.26l6.88-9.94v9.94h2.36V388.16H47.65l-6.9,10v-10H38.4V401.8ZM68,402c2.69,0,4.27-1.73,4.27-10.4v-1.23H77V401.8h2.4V388.16H70.05v2.69c0,8.16-1.29,9-2.67,9a2.73,2.73,0,0,1-.78-.12l-.23,2A7.94,7.94,0,0,0,68,402Zm36,.08A7.05,7.05,0,1,0,96.94,395,7,7,0,0,0,104,402Zm0-2.2A4.67,4.67,0,0,1,99.45,395a4.62,4.62,0,0,1,4.6-4.85,4.67,4.67,0,0,1,4.64,4.85,4.62,4.62,0,0,1-4.6,4.85Zm30.45-12.74a3,3,0,0,0,3.06-2.73l-1.44-.27a1.65,1.65,0,0,1-3.23,0l-1.46.27a3,3,0,0,0,3.08,2.73Zm-5.83,14.71H131l6.88-9.94v9.94h2.36V388.16H138l-6.9,10v-10h-2.36V401.8Zm47.17,0h2.4v-4l2.12-2.18,4.66,6.14H188L182,394l5.67-5.87h-2.94L178.28,395v-6.86h-2.4V401.8Zm35.24.23A7.05,7.05,0,1,0,204,395a7,7,0,0,0,7.11,7.05Zm0-2.2a4.67,4.67,0,0,1-4.64-4.85,4.62,4.62,0,0,1,4.6-4.85,4.67,4.67,0,0,1,4.64,4.85,4.62,4.62,0,0,1-4.6,4.85Zm24.62,2h2.36v-9.74l4.27,6.39h.08l4.31-6.43v9.78h2.4V388.16h-2.55l-4.15,6.45-4.15-6.45h-2.55V401.8Zm31.52,0h2.4V390.32H276V401.8h2.4V388.16H267.3V401.8Zm29.24.16c2.69,0,4.27-1.73,4.27-10.4v-1.23h4.72V401.8h2.4V388.16h-9.35v2.69c0,8.16-1.29,9-2.67,9a2.73,2.73,0,0,1-.78-.12l-.23,2a7.93,7.93,0,0,0,1.66.21Zm29.51-.16h10.21v-2.14h-7.81V396h6.84v-2.14h-6.84V390.3h7.72v-2.14H326.06V401.8Zm27.66,0h2.4v-4l2.12-2.18,4.66,6.14h2.9L359.88,394l5.67-5.87h-2.94L356.12,395v-6.86h-2.4V401.8Zm35.07.23a7,7,0,0,0,5.53-2.42l-1.54-1.56a5.35,5.35,0,0,1-3.92,1.77,4.87,4.87,0,0,1,0-9.7,5.42,5.42,0,0,1,3.82,1.7l1.54-1.77a7.11,7.11,0,0,0-5.34-2.12,7.05,7.05,0,0,0-.1,14.11Z" transform="translate(-0.39 -5.7)"/><polygon class="cls-2" points="311.72 78.27 197.35 46.98 197.35 83.3 311.72 97.69 311.72 78.27"/><path class="cls-3" d="M312.12,108.33c-38.12-3.17-76.25-6.88-114.37-10V134.6l114.37-6.86Z" transform="translate(-0.39 -5.7)"/><polygon class="cls-4" points="311.72 53.35 197.35 0 197.35 37.82 311.72 73.48 311.72 53.35"/><polygon class="cls-5" points="82.98 78.27 197.34 46.98 197.34 83.3 82.98 97.69 82.98 78.27"/><path class="cls-6" d="M83.37,108.33c38.12-3.17,76.24-6.88,114.36-10V134.6L83.37,127.74Z" transform="translate(-0.39 -5.7)"/><polygon class="cls-7" points="82.98 53.35 197.34 0 197.34 37.82 82.98 73.48 82.98 53.35"/><path class="cls-8" d="M197.74,143.89h0L347,129.18v4.57s-37,21.62-76.13,20.34c-23.25-.76-51.19,2.94-73.09,11.34Z" transform="translate(-0.39 -5.7)"/><path class="cls-9" d="M48.53,129.35l149.21,14.54v21.53s-23.85,1.06-68-12a430,430,0,0,0-81.17-15.72Z" transform="translate(-0.39 -5.7)"/><path class="cls-10" d="M197.74,196.69s-28.57-.58-70.54-19.71-78.67-21.66-78.67-21.66V143s40.21,3.07,79.51,17.21c40.15,14.44,69.7,14.59,69.7,14.59Z" transform="translate(-0.39 -5.7)"/><path class="cls-11" d="M347,137.58v9s-37.8,31.5-83,32.54c-31.69.73-65.29,17.1-66.24,17.55V174.8a194.54,194.54,0,0,1,70.94-13.21C310.24,161.81,347,137.58,347,137.58Z" transform="translate(-0.39 -5.7)"/><path class="cls-12" d="M197.74,231.09s-37.4-2.89-76.36-30.3c-13.27-9.34-38-18-38-18V167.43A237.3,237.3,0,0,1,127,184.3c39.2,20.34,70.74,21.76,70.74,21.76Z" transform="translate(-0.39 -5.7)"/><path class="cls-13" d="M312.12,173.23v15.15s-24.88,15.6-55.06,18.16c-33.3,2.83-57.13,22.55-59.15,24.38l-.17.15v-25c.83-.44,31.82-17.78,61-19.29C290.72,185.14,312.12,173.23,312.12,173.23Z" transform="translate(-0.39 -5.7)"/><polygon class="cls-14" points="75.57 80.3 75.57 98.62 48.13 102.08 48.13 87.81 75.57 80.3"/><polygon class="cls-15" points="75.57 103.28 75.57 121.6 48.13 119.96 48.13 105.69 75.57 103.28"/><polygon class="cls-16" points="319.12 80.3 319.12 98.62 346.56 102.08 346.56 87.81 319.12 80.3"/><polygon class="cls-17" points="319.12 103.28 319.12 121.6 346.56 119.96 346.56 105.69 319.12 103.28"/><polygon class="cls-18" points="82.98 78.27 197.35 46.98 197.35 83.3 82.98 97.69 82.98 78.27"/><path class="cls-1" d="M38.44,361H41v-6.18l4.9-5L54.76,361H58L47.73,348.1,57.59,338H54.24L41,351.78V338h-2.6v23Zm49.84,0H98.5c5,0,8.34-2.33,8.34-6.28,0-3.22-2.2-4.8-4.93-5.62a5.55,5.55,0,0,0,3.65-5.32,5.15,5.15,0,0,0-1.48-3.75,8.25,8.25,0,0,0-6-2H88.28v23Zm2.56-2.33V350.6H98.1c4,0,6.11,1.45,6.11,3.94s-2.17,4.17-5.65,4.17Zm0-10.41v-7.92h7c3.29,0,5.09,1.48,5.09,3.75,0,2.76-2.17,4.17-5.29,4.17ZM136.25,361h2.66l2.73-6.08h12.52l2.69,6.08h2.79l-10.48-23.16h-2.43L136.25,361Zm6.41-8.41,5.26-11.73,5.22,11.73ZM190.4,361H193v-8.12h5.59c4.9,0,9-2.56,9-7.52,0-4.6-3.42-7.36-8.61-7.36H190.4v23Zm2.6-10.48V340.45h5.81c3.71,0,6.18,1.71,6.18,5,0,3.09-2.5,5.13-6.31,5.13ZM244.65,361h2.63V340.41H255V338H236.93v2.37h7.72V361Zm39.46,0h2.66L289.5,355H302l2.69,6.08h2.79L297,337.88h-2.43L284.11,361Zm6.41-8.41,5.26-11.73L301,352.63Zm47.32,8.67c3.55,0,6.83-2.27,6.83-18.4v-2.5h9.79V361h2.6V338H342.17v4.17c0,15.67-3,16.76-4.76,16.76a6.4,6.4,0,0,1-2-.33l-.53,2.1A10.09,10.09,0,0,0,337.83,361.31Z" transform="translate(-0.39 -5.7)"/></svg>